<svg width="189" height="44" viewBox="0 0 189 44" fill="none" xmlns="http://www.w3.org/2000/svg">
<path d="M6.37207 17.4766L10.9375 30.3672L15.4785 17.4766H20.2881V35.25H16.6138V30.3916L16.98 22.0054L12.1826 35.25H9.66797L4.88281 22.0176L5.24902 30.3916V35.25H1.58691V17.4766H6.37207ZM29.3335 35.4941C27.3966 35.4941 25.8179 34.9001 24.5972 33.7119C23.3846 32.5238 22.7783 30.9409 22.7783 28.9634V28.6216C22.7783 27.2951 23.0347 26.111 23.5474 25.0693C24.0601 24.0195 24.7843 23.2139 25.7202 22.6523C26.6642 22.0827 27.7384 21.7979 28.9429 21.7979C30.7495 21.7979 32.1696 22.3675 33.2031 23.5068C34.2448 24.6462 34.7656 26.2616 34.7656 28.353V29.7935H26.355C26.4689 30.6561 26.8107 31.3478 27.3804 31.8687C27.9582 32.3895 28.6865 32.6499 29.5654 32.6499C30.9245 32.6499 31.9865 32.1576 32.7515 31.1729L34.4849 33.1138C33.9559 33.8625 33.2397 34.4484 32.3364 34.8716C31.4331 35.2866 30.4321 35.4941 29.3335 35.4941ZM28.9307 24.6543C28.2308 24.6543 27.6611 24.8903 27.2217 25.3623C26.7904 25.8343 26.5137 26.5098 26.3916 27.3887H31.2988V27.1079C31.2826 26.3267 31.071 25.7244 30.6641 25.3013C30.2572 24.87 29.6794 24.6543 28.9307 24.6543ZM36.2305 28.5483C36.2305 26.4894 36.6903 24.8496 37.6099 23.6289C38.5376 22.4082 39.8031 21.7979 41.4062 21.7979C42.6921 21.7979 43.7541 22.278 44.5923 23.2383V16.5H48.1323V35.25H44.9463L44.7754 33.8462C43.8965 34.9448 42.7653 35.4941 41.3818 35.4941C39.8275 35.4941 38.5783 34.8838 37.6343 33.6631C36.6984 32.4342 36.2305 30.7293 36.2305 28.5483ZM39.7583 28.8047C39.7583 30.0417 39.974 30.9897 40.4053 31.6489C40.8366 32.3081 41.4632 32.6377 42.2852 32.6377C43.3757 32.6377 44.1447 32.1779 44.5923 31.2583V26.0459C44.1528 25.1263 43.3919 24.6665 42.3096 24.6665C40.6087 24.6665 39.7583 26.0459 39.7583 28.8047ZM71.2769 29.3296C71.1385 31.242 70.4305 32.7476 69.1528 33.8462C67.8833 34.9448 66.2069 35.4941 64.1235 35.4941C61.8449 35.4941 60.0505 34.7292 58.7402 33.1992C57.4382 31.6611 56.7871 29.5534 56.7871 26.876V25.7896C56.7871 24.0806 57.0882 22.575 57.6904 21.2729C58.2926 19.9709 59.1512 18.974 60.2661 18.2822C61.3892 17.5824 62.6912 17.2324 64.1724 17.2324C66.2231 17.2324 67.8752 17.7817 69.1284 18.8804C70.3817 19.979 71.106 21.5212 71.3013 23.5068H67.6392C67.5496 22.3594 67.2282 21.5293 66.6748 21.0166C66.1296 20.4958 65.2954 20.2354 64.1724 20.2354C62.9517 20.2354 62.0361 20.6748 61.4258 21.5537C60.8236 22.4245 60.5143 23.7795 60.498 25.6187V26.9614C60.498 28.882 60.7869 30.2858 61.3647 31.1729C61.9507 32.0599 62.8703 32.5034 64.1235 32.5034C65.2547 32.5034 66.097 32.2471 66.6504 31.7344C67.2119 31.2135 67.5334 30.4119 67.6147 29.3296H71.2769ZM81.1035 35.25C80.9408 34.9326 80.8228 34.5379 80.7495 34.0659C79.895 35.0181 78.7842 35.4941 77.417 35.4941C76.123 35.4941 75.0488 35.1198 74.1943 34.3711C73.348 33.6224 72.9248 32.6784 72.9248 31.5391C72.9248 30.1393 73.4416 29.0651 74.4751 28.3164C75.5168 27.5677 77.0182 27.1893 78.9795 27.1812H80.603V26.4243C80.603 25.814 80.4443 25.3257 80.127 24.9595C79.8177 24.5933 79.3254 24.4102 78.6499 24.4102C78.0558 24.4102 77.5879 24.5526 77.2461 24.8374C76.9124 25.1222 76.7456 25.5129 76.7456 26.0093H73.2178C73.2178 25.2443 73.4538 24.5363 73.9258 23.8853C74.3978 23.2342 75.0651 22.7256 75.9277 22.3594C76.7904 21.985 77.7588 21.7979 78.833 21.7979C80.4606 21.7979 81.7505 22.2088 82.7026 23.0308C83.6629 23.8446 84.1431 24.992 84.1431 26.4731V32.1982C84.1512 33.4515 84.3262 34.3996 84.668 35.0425V35.25H81.1035ZM78.186 32.7964C78.7069 32.7964 79.187 32.6825 79.6265 32.4546C80.0659 32.2186 80.3914 31.9053 80.603 31.5146V29.2441H79.2847C77.5187 29.2441 76.5788 29.8545 76.4648 31.0752L76.4526 31.2827C76.4526 31.7222 76.6073 32.0843 76.9165 32.3691C77.2257 32.654 77.6489 32.7964 78.186 32.7964ZM98.7549 28.7681C98.7549 30.884 98.3032 32.536 97.3999 33.7241C96.4966 34.9041 95.2352 35.4941 93.6157 35.4941C92.1834 35.4941 91.04 34.9448 90.1855 33.8462L90.0269 35.25H86.853V16.5H90.3809V23.2261C91.1947 22.2739 92.2648 21.7979 93.5913 21.7979C95.2026 21.7979 96.464 22.3919 97.3755 23.5801C98.2951 24.7601 98.7549 26.4243 98.7549 28.5728V28.7681ZM95.2271 28.5117C95.2271 27.1771 95.0155 26.2046 94.5923 25.5942C94.1691 24.9757 93.5384 24.6665 92.7002 24.6665C91.5771 24.6665 90.804 25.1263 90.3809 26.0459V31.2583C90.8122 32.186 91.5934 32.6499 92.7246 32.6499C93.8639 32.6499 94.6126 32.0884 94.9707 30.9653C95.1416 30.4282 95.2271 29.6104 95.2271 28.5117ZM104.663 35.25H101.123V22.042H104.663V35.25ZM100.916 18.624C100.916 18.0951 101.09 17.6597 101.44 17.3179C101.799 16.9761 102.283 16.8052 102.893 16.8052C103.495 16.8052 103.975 16.9761 104.333 17.3179C104.692 17.6597 104.871 18.0951 104.871 18.624C104.871 19.1611 104.688 19.6006 104.321 19.9424C103.963 20.2842 103.487 20.4551 102.893 20.4551C102.299 20.4551 101.819 20.2842 101.453 19.9424C101.095 19.6006 100.916 19.1611 100.916 18.624ZM110.828 22.042L110.938 23.5679C111.882 22.3879 113.147 21.7979 114.734 21.7979C116.134 21.7979 117.175 22.2088 117.859 23.0308C118.542 23.8527 118.892 25.0815 118.909 26.7173V35.25H115.381V26.8027C115.381 26.054 115.218 25.5129 114.893 25.1792C114.567 24.8374 114.026 24.6665 113.269 24.6665C112.276 24.6665 111.532 25.0897 111.035 25.936V35.25H107.507V22.042H110.828ZM127.673 35.4941C125.736 35.4941 124.158 34.9001 122.937 33.7119C121.724 32.5238 121.118 30.9409 121.118 28.9634V28.6216C121.118 27.2951 121.375 26.111 121.887 25.0693C122.4 24.0195 123.124 23.2139 124.06 22.6523C125.004 22.0827 126.078 21.7979 127.283 21.7979C129.089 21.7979 130.509 22.3675 131.543 23.5068C132.585 24.6462 133.105 26.2616 133.105 28.353V29.7935H124.695C124.809 30.6561 125.151 31.3478 125.72 31.8687C126.298 32.3895 127.026 32.6499 127.905 32.6499C129.264 32.6499 130.326 32.1576 131.091 31.1729L132.825 33.1138C132.296 33.8625 131.58 34.4484 130.676 34.8716C129.773 35.2866 128.772 35.4941 127.673 35.4941ZM127.271 24.6543C126.571 24.6543 126.001 24.8903 125.562 25.3623C125.13 25.8343 124.854 26.5098 124.731 27.3887H129.639V27.1079C129.622 26.3267 129.411 25.7244 129.004 25.3013C128.597 24.87 128.019 24.6543 127.271 24.6543ZM139.343 18.7949V22.042H141.602V24.6299H139.343V31.2217C139.343 31.71 139.437 32.0599 139.624 32.2715C139.811 32.4831 140.169 32.5889 140.698 32.5889C141.089 32.5889 141.435 32.5604 141.736 32.5034V35.1768C141.044 35.3883 140.332 35.4941 139.6 35.4941C137.126 35.4941 135.864 34.245 135.815 31.7466V24.6299H133.887V22.042H135.815V18.7949H139.343Z" fill="#044953"/>
<g filter="url(#filter0_d)">
<rect x="151.25" y="1" width="36.25" height="40" rx="7.17942" fill="url(#paint0_linear)"/>
<g filter="url(#filter1_f)">
<rect x="153.402" y="2.76367" width="32.2701" height="36.4727" rx="7.17942" fill="url(#paint1_linear)" fill-opacity="0.6"/>
<rect x="153.313" y="2.67393" width="32.4496" height="36.6522" rx="7.26916" stroke="url(#paint2_linear)" stroke-opacity="0.52" stroke-width="0.179486" stroke-linecap="round"/>
</g>
<g filter="url(#filter2_f)">
<rect x="154.84" y="2.76367" width="28.7116" height="6.61569" rx="2.87177" fill="url(#paint3_linear)" fill-opacity="0.9"/>
</g>
<path d="M186.274 12.6684V13.5903C186.274 13.7183 186.229 13.8272 186.139 13.9168C186.049 14.0064 185.94 14.0512 185.812 14.0512H183.813V16.0487C183.813 16.1767 183.768 16.2856 183.679 16.3752C183.589 16.4648 183.48 16.5096 183.352 16.5096H182.429C182.301 16.5096 182.192 16.4648 182.103 16.3752C182.013 16.2856 181.968 16.1767 181.968 16.0487V14.0512H179.969C179.841 14.0512 179.732 14.0064 179.642 13.9168C179.553 13.8272 179.508 13.7183 179.508 13.5903V12.6684C179.508 12.5403 179.553 12.4315 179.642 12.3419C179.732 12.2522 179.841 12.2074 179.969 12.2074H181.968V10.21C181.968 10.0819 182.013 9.9731 182.103 9.88347C182.192 9.79384 182.301 9.74902 182.429 9.74902H183.352C183.48 9.74902 183.589 9.79384 183.679 9.88347C183.768 9.9731 183.813 10.0819 183.813 10.21V12.2074H185.812C185.94 12.2074 186.049 12.2522 186.139 12.3419C186.229 12.4315 186.274 12.5403 186.274 12.6684Z" fill="white" stroke="url(#paint4_angular)" stroke-width="0.358971"/>
<path d="M182.893 14.2818V13.781C182.949 13.865 183.061 13.9684 183.282 14.0459C183.282 14.0459 183.226 13.8618 183.068 13.7379C183.214 13.7681 183.434 13.7638 183.734 13.6356C183.734 13.6356 183.457 13.4838 183.142 13.5247C183.32 13.4202 183.544 13.2135 183.715 12.7859C183.715 12.7859 183.211 12.9184 182.959 13.3276C183.187 12.7999 182.837 12.1279 182.837 12.1279C182.564 12.717 182.623 13.1079 182.711 13.3233C182.459 12.9173 181.959 12.7859 181.959 12.7859C182.13 13.2135 182.353 13.4202 182.532 13.5247C182.217 13.4838 181.94 13.6356 181.94 13.6356C182.24 13.7638 182.46 13.7681 182.606 13.7379C182.448 13.8618 182.392 14.0459 182.392 14.0459C182.613 13.9684 182.725 13.865 182.781 13.781V14.2818H182.893Z" fill="#04AB9A" fill-opacity="0.74"/>
<path d="M159.923 17.672L163.456 27.0613L166.982 17.672H169.733V29.9219H167.613V25.8835L167.823 20.4821L164.205 29.9219H162.682L159.073 20.4905L159.283 25.8835V29.9219H157.163V17.672H159.923ZM181.604 25.9339C181.481 27.2408 180.998 28.2616 180.157 28.9964C179.316 29.7256 178.197 30.0901 176.8 30.0901C175.824 30.0901 174.963 29.8602 174.217 29.4002C173.477 28.9347 172.905 28.2757 172.501 27.4231C172.097 26.5705 171.887 25.5806 171.87 24.4532V23.309C171.87 22.1535 172.074 21.1355 172.484 20.2549C172.893 19.3743 173.48 18.6956 174.242 18.2189C175.011 17.7421 175.897 17.5037 176.901 17.5037C178.253 17.5037 179.341 17.8711 180.165 18.6059C180.99 19.3406 181.469 20.3783 181.604 21.7188H179.484C179.383 20.8382 179.125 20.2044 178.71 19.8174C178.3 19.4248 177.697 19.2285 176.901 19.2285C175.975 19.2285 175.263 19.5678 174.764 20.2465C174.27 20.9196 174.018 21.9095 174.007 23.2164V24.3017C174.007 25.6254 174.242 26.635 174.713 27.3306C175.19 28.0261 175.886 28.3738 176.8 28.3738C177.636 28.3738 178.264 28.1859 178.685 27.8101C179.105 27.4343 179.372 26.8089 179.484 25.9339H181.604Z" fill="white"/>
<path d="M159.923 17.672L160.091 17.6088L160.047 17.4925H159.923V17.672ZM163.456 27.0613L163.288 27.1245L163.457 27.5714L163.624 27.1244L163.456 27.0613ZM166.982 17.672V17.4925H166.857L166.814 17.6089L166.982 17.672ZM169.733 17.672H169.912V17.4925H169.733V17.672ZM169.733 29.9219V30.1014H169.912V29.9219H169.733ZM167.613 29.9219H167.433V30.1014H167.613V29.9219ZM167.613 25.8835L167.433 25.8765V25.8835H167.613ZM167.823 20.4821L168.002 20.489L167.655 20.4178L167.823 20.4821ZM164.205 29.9219V30.1014H164.329L164.373 29.9861L164.205 29.9219ZM162.682 29.9219L162.515 29.986L162.559 30.1014H162.682V29.9219ZM159.073 20.4905L159.241 20.4263L158.894 20.4975L159.073 20.4905ZM159.283 25.8835H159.463L159.463 25.8765L159.283 25.8835ZM159.283 29.9219V30.1014H159.463V29.9219H159.283ZM157.163 29.9219H156.984V30.1014H157.163V29.9219ZM157.163 17.672V17.4925H156.984V17.672H157.163ZM159.755 17.7352L163.288 27.1245L163.624 26.9981L160.091 17.6088L159.755 17.7352ZM163.624 27.1244L167.15 17.7351L166.814 17.6089L163.288 26.9982L163.624 27.1244ZM166.982 17.8515H169.733V17.4925H166.982V17.8515ZM169.553 17.672V29.9219H169.912V17.672H169.553ZM169.733 29.7424H167.613V30.1014H169.733V29.7424ZM167.792 29.9219V25.8835H167.433V29.9219H167.792ZM167.792 25.8904L168.002 20.489L167.644 20.4751L167.433 25.8765L167.792 25.8904ZM167.655 20.4178L164.038 29.8576L164.373 29.9861L167.991 20.5463L167.655 20.4178ZM164.205 29.7424H162.682V30.1014H164.205V29.7424ZM162.85 29.8577L159.241 20.4263L158.905 20.5546L162.515 29.986L162.85 29.8577ZM158.894 20.4975L159.104 25.8904L159.463 25.8765L159.252 20.4835L158.894 20.4975ZM159.104 25.8835V29.9219H159.463V25.8835H159.104ZM159.283 29.7424H157.163V30.1014H159.283V29.7424ZM157.343 29.9219V17.672H156.984V29.9219H157.343ZM157.163 17.8515H159.923V17.4925H157.163V17.8515ZM181.604 25.9339L181.783 25.9508L181.801 25.7544H181.604V25.9339ZM180.157 28.9964L180.274 29.132L180.275 29.1316L180.157 28.9964ZM174.217 29.4002L174.122 29.5522L174.123 29.553L174.217 29.4002ZM171.87 24.4532H171.69L171.69 24.4559L171.87 24.4532ZM174.242 18.2189L174.148 18.0663L174.147 18.0667L174.242 18.2189ZM181.604 21.7188V21.8983H181.802L181.783 21.7009L181.604 21.7188ZM179.484 21.7188L179.306 21.7393L179.324 21.8983H179.484V21.7188ZM178.71 19.8174L178.586 19.947L178.587 19.9487L178.71 19.8174ZM174.764 20.2465L174.619 20.1401L174.619 20.1403L174.764 20.2465ZM174.007 23.2164L173.827 23.2149V23.2164H174.007ZM174.713 27.3306L174.565 27.4312L174.565 27.432L174.713 27.3306ZM179.484 25.9339V25.7544H179.326L179.306 25.9111L179.484 25.9339ZM181.425 25.9171C181.305 27.1868 180.84 28.1619 180.039 28.8612L180.275 29.1316C181.157 28.3614 181.656 27.2949 181.783 25.9508L181.425 25.9171ZM180.039 28.8608C179.238 29.555 178.165 29.9107 176.8 29.9107V30.2696C178.228 30.2696 179.393 29.8961 180.274 29.132L180.039 28.8608ZM176.8 29.9107C175.853 29.9107 175.026 29.688 174.311 29.2475L174.123 29.553C174.9 30.0324 175.795 30.2696 176.8 30.2696V29.9107ZM174.313 29.2483C173.603 28.8024 173.053 28.1705 172.663 27.3463L172.339 27.4999C172.756 28.3808 173.35 29.067 174.122 29.5522L174.313 29.2483ZM172.663 27.3463C172.272 26.521 172.066 25.5572 172.049 24.4505L171.69 24.4559C171.707 25.604 171.922 26.6201 172.339 27.4999L172.663 27.3463ZM172.049 24.4532V23.309H171.69V24.4532H172.049ZM172.049 23.309C172.049 22.1748 172.25 21.1834 172.647 20.3306L172.321 20.1792C171.899 21.0876 171.69 22.1323 171.69 23.309H172.049ZM172.647 20.3306C173.043 19.4789 173.606 18.8279 174.337 18.3711L174.147 18.0667C173.353 18.5633 172.744 19.2697 172.321 20.1792L172.647 20.3306ZM174.337 18.3714C175.074 17.9141 175.927 17.6832 176.901 17.6832V17.3242C175.867 17.3242 174.948 17.5701 174.148 18.0663L174.337 18.3714ZM176.901 17.6832C178.219 17.6832 179.261 18.0406 180.046 18.7399L180.285 18.4719C179.42 17.7016 178.286 17.3242 176.901 17.3242V17.6832ZM180.046 18.7399C180.83 19.4385 181.294 20.4306 181.425 21.7368L181.783 21.7009C181.645 20.326 181.15 19.2428 180.285 18.4719L180.046 18.7399ZM181.604 21.5393H179.484V21.8983H181.604V21.5393ZM179.662 21.6984C179.559 20.798 179.292 20.1147 178.832 19.6861L178.587 19.9487C178.958 20.2941 179.207 20.8784 179.306 21.7393L179.662 21.6984ZM178.834 19.6879C178.38 19.2522 177.725 19.049 176.901 19.049V19.408C177.67 19.408 178.221 19.5974 178.586 19.947L178.834 19.6879ZM176.901 19.049C175.925 19.049 175.156 19.4105 174.619 20.1401L174.909 20.3528C175.37 19.7251 176.026 19.408 176.901 19.408V19.049ZM174.619 20.1403C174.094 20.8566 173.839 21.8902 173.827 23.2149L174.186 23.2179C174.197 21.9289 174.447 20.9825 174.909 20.3526L174.619 20.1403ZM173.827 23.2164V24.3017H174.186V23.2164H173.827ZM173.827 24.3017C173.827 25.6423 174.065 26.6934 174.565 27.4312L174.862 27.2299C174.42 26.5767 174.186 25.6086 174.186 24.3017H173.827ZM174.565 27.432C175.079 28.181 175.832 28.5533 176.8 28.5533V28.1943C175.939 28.1943 175.302 27.8711 174.862 27.2291L174.565 27.432ZM176.8 28.5533C177.659 28.5533 178.338 28.3605 178.804 27.944L178.565 27.6763C178.19 28.0113 177.612 28.1943 176.8 28.1943V28.5533ZM178.804 27.944C179.271 27.527 179.547 26.8516 179.662 25.9568L179.306 25.9111C179.196 26.7663 178.94 27.3416 178.565 27.6763L178.804 27.944ZM179.484 26.1134H181.604V25.7544H179.484V26.1134Z" fill="#6A6A6A" fill-opacity="0.24"/>
</g>
<defs>
<filter id="filter0_d" x="149.814" y="1" width="39.4868" height="43.4355" filterUnits="userSpaceOnUse" color-interpolation-filters="sRGB">
<feFlood flood-opacity="0" result="BackgroundImageFix"/>
<feColorMatrix in="SourceAlpha" type="matrix" values="0 0 0 0 0 0 0 0 0 0 0 0 0 0 0 0 0 0 127 0"/>
<feOffset dy="1.43588"/>
<feGaussianBlur stdDeviation="0.717942"/>
<feColorMatrix type="matrix" values="0 0 0 0 0 0 0 0 0 0 0 0 0 0 0 0 0 0 0.25 0"/>
<feBlend mode="normal" in2="BackgroundImageFix" result="effect1_dropShadow"/>
<feBlend mode="normal" in="SourceGraphic" in2="effect1_dropShadow" result="shape"/>
</filter>
<filter id="filter1_f" x="151.069" y="0.430158" width="36.9367" height="41.1393" filterUnits="userSpaceOnUse" color-interpolation-filters="sRGB">
<feFlood flood-opacity="0" result="BackgroundImageFix"/>
<feBlend mode="normal" in="SourceGraphic" in2="BackgroundImageFix" result="shape"/>
<feGaussianBlur stdDeviation="1.07691" result="effect1_foregroundBlur"/>
</filter>
<filter id="filter2_f" x="152.686" y="0.609846" width="33.0193" height="10.9233" filterUnits="userSpaceOnUse" color-interpolation-filters="sRGB">
<feFlood flood-opacity="0" result="BackgroundImageFix"/>
<feBlend mode="normal" in="SourceGraphic" in2="BackgroundImageFix" result="shape"/>
<feGaussianBlur stdDeviation="1.07691" result="effect1_foregroundBlur"/>
</filter>
<linearGradient id="paint0_linear" x1="175.772" y1="12.8584" x2="171.184" y2="25.0828" gradientUnits="userSpaceOnUse">
<stop stop-color="#0A9EB5"/>
<stop offset="0.508373" stop-color="#0E9DB3" stop-opacity="0.78"/>
<stop offset="1" stop-color="#0F91A5" stop-opacity="0.94"/>
</linearGradient>
<linearGradient id="paint1_linear" x1="169.537" y1="2.76367" x2="169.537" y2="36.0778" gradientUnits="userSpaceOnUse">
<stop offset="0.203125" stop-color="#04C6F2" stop-opacity="0"/>
<stop offset="0.5" stop-color="#04C6F2" stop-opacity="0.448819"/>
<stop offset="0.880208" stop-color="#04BBE4" stop-opacity="0.72"/>
</linearGradient>
<linearGradient id="paint2_linear" x1="169.375" y1="31.782" x2="169.536" y2="39.2364" gradientUnits="userSpaceOnUse">
<stop offset="0.552083" stop-color="#229DAD" stop-opacity="0.685677"/>
<stop offset="0.619792" stop-color="#1C99AA"/>
<stop offset="1" stop-color="#28A1B0"/>
</linearGradient>
<linearGradient id="paint3_linear" x1="169.196" y1="2.97447" x2="169.241" y2="9.4078" gradientUnits="userSpaceOnUse">
<stop offset="0.0254978" stop-color="#58C1D8"/>
<stop offset="0.699104" stop-color="#9EDFED" stop-opacity="0"/>
</linearGradient>
<radialGradient id="paint4_angular" cx="0" cy="0" r="1" gradientUnits="userSpaceOnUse" gradientTransform="translate(182.891 13.1293) rotate(-146.33) scale(1.43463 1.10872)">
<stop offset="0.289194" stop-color="#28AA6D"/>
<stop offset="0.560407" stop-color="#13C097" stop-opacity="0.7"/>
<stop offset="0.65695" stop-color="#14A087" stop-opacity="0.494792"/>
</radialGradient>
</defs>
</svg>
